<svg id="calendar" xmlns="http://www.w3.org/2000/svg" width="14" height="14" viewBox="0 0 14 14">
  <path id="Path_10884" data-name="Path 10884" d="M13.625,2.875h-1.75V2H11v.875H7.5V2H6.625v.875H4.875A.878.878,0,0,0,4,3.75V12.5a.878.878,0,0,0,.875.875h8.75A.878.878,0,0,0,14.5,12.5V3.75A.878.878,0,0,0,13.625,2.875Zm0,9.625H4.875V6.375h8.75Zm0-7H4.875V3.75h1.75v.875H7.5V3.75H11v.875h.875V3.75h1.75Z" transform="translate(-2.25 -1.125)" fill="#475569"/>
  <rect id="_Transparent_Rectangle_" width="14" height="14" fill="none"/>
</svg>
